<?xml version="1.0" encoding="utf-8"?>
<!DOCTYPE svg PUBLIC "-//W3C//DTD SVG 1.1//EN" "http://www.w3.org/Graphics/SVG/1.1/DTD/svg11.dtd">
<svg version="1.1" xmlns="http://www.w3.org/2000/svg" xmlns:xlink="http://www.w3.org/1999/xlink" x="0px" y="0px"
	 viewBox="0 0 510.236 164.41" enable-background="new 0 0 510.236 164.41" xml:space="preserve">
<g id="Layer_1">
	<g>
		<path fill="#182032" d="M376.655,113.938h11.326v-62.82h-6.157c-4.622,0-6.867,2.246-6.867,6.864v27.795
			c0,0.529,0.015,1.084,0.035,1.658l0.091,2.243l-1.174-1.916c-0.58-0.955-1.137-1.825-1.651-2.576l-23.32-34.068h-11.649v62.82
			h6.392c4.683,0,6.867-2.18,6.867-6.864V79.363c0-0.514-0.014-1.058-0.037-1.614l-0.088-2.229l1.173,1.899
			c0.589,0.965,1.148,1.819,1.651,2.538L376.655,113.938L376.655,113.938z"/>
	</g>
	<g>
		<path fill="#E63812" d="M94.818,113.938h11.326v-62.82h-6.157c-4.622,0-6.867,2.246-6.867,6.864v27.795
			c0,0.529,0.014,1.084,0.035,1.658l0.09,2.243l-1.173-1.916c-0.58-0.955-1.136-1.825-1.651-2.576L67.101,51.118H55.452v62.82h6.392
			c4.682,0,6.867-2.18,6.867-6.864V79.363c0-0.514-0.014-1.058-0.037-1.614l-0.088-2.229l1.174,1.899
			c0.589,0.965,1.148,1.819,1.651,2.538L94.818,113.938L94.818,113.938z"/>
	</g>
	<path fill="#E63812" d="M142.278,64.015c-2.381,1.002-4.459,2.387-6.222,4.151c-1.77,1.767-3.151,3.815-4.151,6.152
		c-1.001,2.34-1.502,4.845-1.502,7.516v-0.304h25.76v12.736h-25.76v19.745h-12.739V81.835c0-4.484,0.835-8.659,2.509-12.523
		c1.668-3.866,3.98-7.249,6.936-10.164c2.96-2.908,6.397-5.197,10.304-6.867c3.91-1.667,8.066-2.504,12.456-2.504h6.294v12.736
		h-6.294C147.19,62.512,144.664,63.013,142.278,64.015z"/>
	<path fill="#E63812" d="M214.562,98.099l-2.697-2.296c-0.619,0.709-1.296,1.331-1.985,1.888v0.046
		c-1.94,1.512-4.065,2.635-6.308,3.367c-0.812,0.274-1.326,0.395-1.326,0.395v-0.005c-1.589,0.399-3.229,0.607-4.896,0.607
		c-10.987,0-19.93-8.975-19.93-20.007c0-10.989,8.942-19.93,19.93-19.93c5.425,0,10.445,2.08,14.143,5.859l0.408,0.417l8.634-8.546
		l-0.411-0.413c-6.041-6.039-14.341-9.501-22.773-9.501c-17.708,0-32.112,14.406-32.112,32.114
		c0,17.707,14.404,32.112,32.112,32.112c8.888,0,17.314-3.654,23.37-10.073L214.562,98.099z"/>
	<rect x="237.229" y="50.977" fill="#182032" width="1.177" height="63.035"/>
	<path fill="#182032" d="M254.647,51.16h23.215c12.806,0,23.307,5.99,23.307,20.635c0,9.487-4.973,15.478-12.25,18.33l14.276,23.678
		h-14.74l-12.713-21.739h-8.198v21.739h-12.896V51.16z M277.495,81.193c6.354,0,10.408-2.486,10.408-9.397
		c0-7.001-4.234-9.304-10.408-9.304h-9.951v18.702H277.495z"/>
	<path fill="#182032" d="M312.874,51.16h12.895v62.643h-12.895V51.16z"/>
	<path fill="#182032" d="M396.749,82.482c0-18.516,13.079-32.059,31.966-32.059c10.226,0,17.598,2.764,22.755,8.662l-8.754,8.657
		c-3.129-3.224-6.724-5.709-14.001-5.709c-11.331,0-18.701,8.75-18.701,20.45c0,11.697,7.556,20.635,20.728,20.635
		c4.054,0,9.025-0.737,12.252-2.305v-8.225h-15.107V81.256h26.896v26.097c-3.593,2.949-12.618,7.281-24.042,7.281
		C410.29,114.633,396.749,100.998,396.749,82.482z"/>
</g>
<g id="Space">
</g>
</svg>
